<svg width="278" height="69" viewBox="0 0 278 69" fill="none" xmlns="http://www.w3.org/2000/svg">
<path d="M93.933 58.3635H91.2675C91.1915 57.9263 91.0514 57.5391 90.8471 57.2018C90.6428 56.8597 90.3886 56.5699 90.0845 56.3323C89.7804 56.0947 89.4336 55.9166 89.044 55.7978C88.6591 55.6743 88.2434 55.6125 87.7968 55.6125C87.0033 55.6125 86.3001 55.812 85.6872 56.2111C85.0743 56.6055 84.5944 57.1851 84.2476 57.9501C83.9008 58.7103 83.7273 59.6392 83.7273 60.7367C83.7273 61.8532 83.9008 62.794 84.2476 63.5589C84.5992 64.3191 85.0791 64.894 85.6872 65.2836C86.3001 65.6685 87.0009 65.8609 87.7896 65.8609C88.2267 65.8609 88.6354 65.8039 89.0155 65.6898C89.4003 65.5711 89.7448 65.3976 90.0488 65.1696C90.3577 64.9415 90.6166 64.6612 90.8257 64.3286C91.0395 63.996 91.1868 63.6159 91.2675 63.1883L93.933 63.2026C93.8332 63.8963 93.617 64.5472 93.2844 65.1553C92.9566 65.7635 92.5266 66.3004 91.9945 66.766C91.4623 67.2269 90.8399 67.588 90.1272 67.8493C89.4146 68.1058 88.6235 68.2341 87.754 68.2341C86.4712 68.2341 85.3261 67.9372 84.3189 67.3433C83.3116 66.7494 82.5181 65.8918 81.9385 64.7705C81.3588 63.6492 81.069 62.3046 81.069 60.7367C81.069 59.164 81.3612 57.8194 81.9456 56.7029C82.53 55.5816 83.3259 54.724 84.3331 54.1301C85.3404 53.5362 86.4807 53.2393 87.754 53.2393C88.5665 53.2393 89.3219 53.3533 90.0203 53.5813C90.7188 53.8094 91.3412 54.1444 91.8876 54.5862C92.434 55.0233 92.883 55.5602 93.2345 56.1969C93.5909 56.8288 93.8237 57.551 93.933 58.3635Z" fill="white"/>
<path d="M101.015 68.2484C99.9462 68.2484 99.0198 68.0132 98.2358 67.5428C97.4518 67.0725 96.8437 66.4144 96.4113 65.5687C95.9837 64.723 95.7699 63.7347 95.7699 62.6039C95.7699 61.4731 95.9837 60.4825 96.4113 59.632C96.8437 58.7816 97.4518 58.1211 98.2358 57.6508C99.0198 57.1804 99.9462 56.9452 101.015 56.9452C102.084 56.9452 103.011 57.1804 103.795 57.6508C104.579 58.1211 105.184 58.7816 105.612 59.632C106.044 60.4825 106.261 61.4731 106.261 62.6039C106.261 63.7347 106.044 64.723 105.612 65.5687C105.184 66.4144 104.579 67.0725 103.795 67.5428C103.011 68.0132 102.084 68.2484 101.015 68.2484ZM101.03 66.1816C101.609 66.1816 102.094 66.0224 102.483 65.7041C102.873 65.381 103.163 64.9487 103.353 64.407C103.548 63.8654 103.645 63.262 103.645 62.5968C103.645 61.9269 103.548 61.3211 103.353 60.7794C103.163 60.2331 102.873 59.7983 102.483 59.4752C102.094 59.1522 101.609 58.9906 101.03 58.9906C100.436 58.9906 99.9415 59.1522 99.5471 59.4752C99.1575 59.7983 98.8653 60.2331 98.6705 60.7794C98.4805 61.3211 98.3855 61.9269 98.3855 62.5968C98.3855 63.262 98.4805 63.8654 98.6705 64.407C98.8653 64.9487 99.1575 65.381 99.5471 65.7041C99.9415 66.0224 100.436 66.1816 101.03 66.1816Z" fill="white"/>
<path d="M111.03 53.4388V68.0346H108.45V53.4388H111.03Z" fill="white"/>
<path d="M117.746 68.227C116.886 68.227 116.116 68.0061 115.436 67.5642C114.757 67.1223 114.22 66.4809 113.826 65.64C113.431 64.799 113.234 63.7775 113.234 62.5754C113.234 61.3591 113.434 60.3328 113.833 59.4966C114.237 58.6557 114.781 58.0214 115.465 57.5938C116.149 57.1614 116.912 56.9452 117.753 56.9452C118.394 56.9452 118.921 57.0545 119.335 57.273C119.748 57.4868 120.076 57.7458 120.318 58.0499C120.561 58.3492 120.748 58.6319 120.881 58.898H120.988V53.4388H123.575V68.0346H121.038V66.3099H120.881C120.748 66.576 120.556 66.8586 120.304 67.158C120.052 67.4526 119.72 67.7044 119.306 67.9134C118.893 68.1225 118.373 68.227 117.746 68.227ZM118.465 66.1103C119.012 66.1103 119.477 65.963 119.862 65.6685C120.247 65.3691 120.539 64.9534 120.739 64.4213C120.938 63.8891 121.038 63.2691 121.038 62.5612C121.038 61.8532 120.938 61.2379 120.739 60.7153C120.544 60.1927 120.254 59.7864 119.869 59.4966C119.489 59.2068 119.021 59.0619 118.465 59.0619C117.89 59.0619 117.411 59.2115 117.026 59.5109C116.641 59.8102 116.351 60.2236 116.156 60.7509C115.961 61.2783 115.864 61.8817 115.864 62.5612C115.864 63.2453 115.961 63.8559 116.156 64.3928C116.356 64.9249 116.648 65.3454 117.033 65.6542C117.422 65.9583 117.9 66.1103 118.465 66.1103Z" fill="white"/>
<path d="M131.417 68.0346V53.4388H140.91V55.6553H134.061V59.6178H140.418V61.8342H134.061V65.8181H140.967V68.0346H131.417Z" fill="white"/>
<path d="M143.493 68.0346V57.0877H145.959V58.9479H146.087C146.315 58.3207 146.693 57.8313 147.22 57.4797C147.748 57.1234 148.377 56.9452 149.109 56.9452C149.85 56.9452 150.475 57.1258 150.983 57.4869C151.496 57.8432 151.858 58.3302 152.067 58.9479H152.181C152.423 58.3397 152.832 57.8551 153.406 57.494C153.986 57.1281 154.673 56.9452 155.466 56.9452C156.473 56.9452 157.295 57.2635 157.932 57.9002C158.569 58.5369 158.887 59.4657 158.887 60.6868V68.0346H156.3V61.0859C156.3 60.4065 156.119 59.91 155.758 59.5964C155.397 59.2781 154.955 59.1189 154.433 59.1189C153.81 59.1189 153.323 59.3137 152.972 59.7033C152.625 60.0881 152.451 60.5894 152.451 61.2071V68.0346H149.921V60.979C149.921 60.4136 149.75 59.9622 149.408 59.6249C149.071 59.2876 148.629 59.1189 148.083 59.1189C147.712 59.1189 147.375 59.2139 147.071 59.404C146.767 59.5893 146.524 59.853 146.344 60.195C146.163 60.5324 146.073 60.9267 146.073 61.3781V68.0346H143.493Z" fill="white"/>
<path d="M164.654 68.2555C163.961 68.2555 163.336 68.132 162.78 67.8849C162.229 67.6331 161.792 67.2625 161.469 66.7731C161.15 66.2837 160.991 65.6803 160.991 64.9629C160.991 64.3452 161.105 63.8345 161.333 63.4306C161.561 63.0268 161.873 62.7037 162.267 62.4614C162.661 62.2191 163.105 62.0362 163.6 61.9126C164.099 61.7843 164.614 61.6917 165.146 61.6347C165.788 61.5682 166.308 61.5088 166.707 61.4565C167.106 61.3995 167.396 61.314 167.576 61.1999C167.762 61.0812 167.854 60.8982 167.854 60.6512V60.6084C167.854 60.0715 167.695 59.6558 167.377 59.3612C167.059 59.0666 166.6 58.9193 166.001 58.9193C165.369 58.9193 164.868 59.0571 164.498 59.3327C164.132 59.6083 163.885 59.9337 163.756 60.3091L161.348 59.967C161.538 59.3018 161.851 58.7459 162.288 58.2993C162.725 57.8479 163.26 57.5106 163.892 57.2873C164.524 57.0592 165.222 56.9452 165.987 56.9452C166.515 56.9452 167.04 57.007 167.562 57.1305C168.085 57.254 168.562 57.4583 168.995 57.7434C169.427 58.0237 169.774 58.4062 170.035 58.8908C170.301 59.3755 170.434 59.9812 170.434 60.7082V68.0346H167.954V66.5308H167.869C167.712 66.8349 167.491 67.12 167.206 67.386C166.925 67.6473 166.572 67.8588 166.144 68.0203C165.721 68.1771 165.225 68.2555 164.654 68.2555ZM165.324 66.3598C165.842 66.3598 166.291 66.2576 166.671 66.0533C167.051 65.8443 167.344 65.5687 167.548 65.2266C167.757 64.8845 167.861 64.5115 167.861 64.1077V62.8177C167.781 62.8842 167.643 62.946 167.448 63.003C167.258 63.06 167.044 63.1099 166.807 63.1527C166.569 63.1955 166.334 63.2335 166.101 63.2667C165.868 63.3 165.666 63.3285 165.495 63.3522C165.111 63.4045 164.766 63.49 164.462 63.6088C164.158 63.7276 163.918 63.8939 163.742 64.1077C163.566 64.3167 163.478 64.5876 163.478 64.9201C163.478 65.3953 163.652 65.754 163.999 65.9963C164.346 66.2386 164.787 66.3598 165.324 66.3598Z" fill="white"/>
<path d="M173.028 68.0346V57.0877H175.608V68.0346H173.028ZM174.326 55.5341C173.917 55.5341 173.565 55.3987 173.271 55.1279C172.976 54.8523 172.829 54.5221 172.829 54.1372C172.829 53.7476 172.976 53.4174 173.271 53.1466C173.565 52.871 173.917 52.7332 174.326 52.7332C174.739 52.7332 175.09 52.871 175.38 53.1466C175.675 53.4174 175.822 53.7476 175.822 54.1372C175.822 54.5221 175.675 54.8523 175.38 55.1279C175.09 55.3987 174.739 55.5341 174.326 55.5341Z" fill="white"/>
<path d="M180.841 53.4388V68.0346H178.261V53.4388H180.841Z" fill="white"/>
<path d="M201.628 60.7367C201.628 62.3093 201.334 63.6563 200.745 64.7776C200.16 65.8941 199.362 66.7494 198.35 67.3433C197.343 67.9372 196.2 68.2341 194.922 68.2341C193.644 68.2341 192.499 67.9372 191.487 67.3433C190.48 66.7446 189.681 65.887 189.092 64.7705C188.508 63.6492 188.216 62.3046 188.216 60.7367C188.216 59.164 188.508 57.8194 189.092 56.7029C189.681 55.5816 190.48 54.724 191.487 54.1301C192.499 53.5362 193.644 53.2393 194.922 53.2393C196.2 53.2393 197.343 53.5362 198.35 54.1301C199.362 54.724 200.16 55.5816 200.745 56.7029C201.334 57.8194 201.628 59.164 201.628 60.7367ZM198.97 60.7367C198.97 59.6297 198.797 58.696 198.45 57.9358C198.108 57.1709 197.633 56.5936 197.025 56.204C196.416 55.8097 195.716 55.6125 194.922 55.6125C194.129 55.6125 193.428 55.8097 192.82 56.204C192.212 56.5936 191.734 57.1709 191.387 57.9358C191.045 58.696 190.874 59.6297 190.874 60.7367C190.874 61.8437 191.045 62.7797 191.387 63.5447C191.734 64.3049 192.212 64.8821 192.82 65.2765C193.428 65.6661 194.129 65.8609 194.922 65.8609C195.716 65.8609 196.416 65.6661 197.025 65.2765C197.633 64.8821 198.108 64.3049 198.45 63.5447C198.797 62.7797 198.97 61.8437 198.97 60.7367Z" fill="white"/>
<path d="M210.991 63.4306V57.0877H213.571V68.0346H211.07V66.089H210.956C210.709 66.7019 210.302 67.2031 209.737 67.5927C209.176 67.9823 208.485 68.1771 207.663 68.1771C206.946 68.1771 206.311 68.0179 205.76 67.6996C205.214 67.3765 204.786 66.9085 204.477 66.2956C204.169 65.678 204.014 64.932 204.014 64.0578V57.0877H206.594V63.6587C206.594 64.3524 206.784 64.9035 207.164 65.3121C207.544 65.7207 208.043 65.925 208.661 65.925C209.041 65.925 209.409 65.8324 209.766 65.6471C210.122 65.4618 210.414 65.1862 210.642 64.8204C210.875 64.4498 210.991 63.9865 210.991 63.4306Z" fill="white"/>
<path d="M221.691 57.0877V59.0833H215.398V57.0877H221.691ZM216.951 54.4651H219.531V64.742C219.531 65.0888 219.583 65.3549 219.688 65.5402C219.797 65.7207 219.94 65.8443 220.115 65.9108C220.291 65.9773 220.486 66.0106 220.7 66.0106C220.861 66.0106 221.009 65.9987 221.142 65.9749C221.28 65.9512 221.384 65.9298 221.455 65.9108L221.89 67.9277C221.752 67.9752 221.555 68.0275 221.299 68.0845C221.047 68.1415 220.738 68.1747 220.372 68.1842C219.726 68.2032 219.144 68.1058 218.626 67.892C218.108 67.6735 217.697 67.3361 217.393 66.88C217.094 66.4239 216.946 65.8538 216.951 65.1696V54.4651Z" fill="white"/>
<path d="M223.848 68.0346V57.0877H226.35V58.9122H226.464C226.663 58.2803 227.005 57.7933 227.49 57.4512C227.979 57.1044 228.538 56.931 229.165 56.931C229.307 56.931 229.466 56.9381 229.642 56.9523C229.823 56.9618 229.972 56.9785 230.091 57.0022V59.3755C229.982 59.3375 229.809 59.3042 229.571 59.2757C229.338 59.2424 229.113 59.2258 228.894 59.2258C228.424 59.2258 228.001 59.328 227.625 59.5323C227.255 59.7318 226.963 60.0098 226.749 60.3661C226.535 60.7224 226.428 61.1334 226.428 61.599V68.0346H223.848Z" fill="white"/>
<path d="M236.201 68.2484C235.103 68.2484 234.155 68.0203 233.357 67.5642C232.564 67.1033 231.953 66.4524 231.526 65.6115C231.098 64.7657 230.884 63.7703 230.884 62.6253C230.884 61.4993 231.098 60.511 231.526 59.6605C231.958 58.8053 232.561 58.1401 233.336 57.665C234.11 57.1851 235.02 56.9452 236.065 56.9452C236.74 56.9452 237.377 57.0545 237.975 57.273C238.579 57.4868 239.111 57.8194 239.572 58.2708C240.037 58.7222 240.403 59.2971 240.669 59.9955C240.935 60.6892 241.068 61.5159 241.068 62.4756V63.2667H232.096V61.5278H238.595C238.591 61.0336 238.484 60.5942 238.275 60.2093C238.066 59.8197 237.773 59.5132 237.398 59.2899C237.027 59.0666 236.595 58.955 236.101 58.955C235.574 58.955 235.11 59.0833 234.711 59.3398C234.312 59.5916 234.001 59.9242 233.778 60.3376C233.559 60.7462 233.447 61.1952 233.443 61.6846V63.2026C233.443 63.8392 233.559 64.3856 233.792 64.8418C234.025 65.2931 234.35 65.64 234.768 65.8823C235.186 66.1198 235.676 66.2386 236.236 66.2386C236.612 66.2386 236.951 66.1863 237.256 66.0818C237.56 65.9725 237.823 65.8134 238.047 65.6043C238.27 65.3953 238.439 65.1363 238.553 64.8275L240.961 65.0983C240.809 65.735 240.52 66.2909 240.092 66.766C239.669 67.2364 239.128 67.6022 238.467 67.8635C237.807 68.1201 237.051 68.2484 236.201 68.2484Z" fill="white"/>
<path d="M246.401 68.2555C245.707 68.2555 245.083 68.132 244.527 67.8849C243.976 67.6331 243.538 67.2625 243.215 66.7731C242.897 66.2837 242.738 65.6803 242.738 64.9629C242.738 64.3452 242.852 63.8345 243.08 63.4306C243.308 63.0268 243.619 62.7037 244.014 62.4614C244.408 62.2191 244.852 62.0362 245.346 61.9126C245.845 61.7843 246.361 61.6917 246.893 61.6347C247.534 61.5682 248.054 61.5088 248.454 61.4565C248.853 61.3995 249.142 61.314 249.323 61.1999C249.508 61.0812 249.601 60.8982 249.601 60.6512V60.6084C249.601 60.0715 249.442 59.6558 249.123 59.3612C248.805 59.0666 248.347 58.9193 247.748 58.9193C247.116 58.9193 246.615 59.0571 246.244 59.3327C245.878 59.6083 245.631 59.9337 245.503 60.3091L243.094 59.967C243.284 59.3018 243.598 58.7459 244.035 58.2993C244.472 57.8479 245.007 57.5106 245.638 57.2873C246.27 57.0592 246.969 56.9452 247.734 56.9452C248.261 56.9452 248.786 57.007 249.309 57.1305C249.831 57.254 250.309 57.4583 250.741 57.7434C251.174 58.0237 251.52 58.4062 251.782 58.8908C252.048 59.3755 252.181 59.9812 252.181 60.7082V68.0346H249.701V66.5308H249.615C249.458 66.8349 249.238 67.12 248.952 67.386C248.672 67.6473 248.318 67.8588 247.891 68.0203C247.468 68.1771 246.971 68.2555 246.401 68.2555ZM247.071 66.3598C247.589 66.3598 248.038 66.2576 248.418 66.0533C248.798 65.8443 249.09 65.5687 249.295 65.2266C249.504 64.8845 249.608 64.5115 249.608 64.1077V62.8177C249.527 62.8842 249.39 62.946 249.195 63.003C249.005 63.06 248.791 63.1099 248.553 63.1527C248.316 63.1955 248.081 63.2335 247.848 63.2667C247.615 63.3 247.413 63.3285 247.242 63.3522C246.857 63.4045 246.513 63.49 246.209 63.6088C245.905 63.7276 245.665 63.8939 245.489 64.1077C245.313 64.3167 245.225 64.5876 245.225 64.9201C245.225 65.3953 245.399 65.754 245.745 65.9963C246.092 66.2386 246.534 66.3598 247.071 66.3598Z" fill="white"/>
<path d="M259.55 68.2484C258.457 68.2484 257.519 68.0084 256.735 67.5286C255.956 67.0487 255.355 66.3859 254.932 65.5402C254.514 64.6897 254.305 63.711 254.305 62.6039C254.305 61.4921 254.519 60.511 254.946 59.6605C255.374 58.8053 255.977 58.1401 256.756 57.665C257.54 57.1851 258.467 56.9452 259.536 56.9452C260.424 56.9452 261.211 57.1091 261.895 57.437C262.584 57.76 263.133 58.2185 263.541 58.8124C263.95 59.4016 264.183 60.0905 264.24 60.8792H261.774C261.674 60.3518 261.436 59.9124 261.061 59.5608C260.69 59.2044 260.194 59.0262 259.571 59.0262C259.044 59.0262 258.581 59.1688 258.182 59.4539C257.783 59.7342 257.471 60.138 257.248 60.6654C257.03 61.1928 256.92 61.8247 256.92 62.5612C256.92 63.3071 257.03 63.9485 257.248 64.4854C257.467 65.0175 257.773 65.4285 258.167 65.7184C258.567 66.0034 259.035 66.146 259.571 66.146C259.952 66.146 260.291 66.0747 260.591 65.9322C260.895 65.7849 261.149 65.5734 261.353 65.2979C261.557 65.0223 261.698 64.6873 261.774 64.293H264.24C264.178 65.0674 263.95 65.754 263.555 66.3526C263.161 66.9465 262.624 67.4122 261.945 67.7495C261.265 68.0821 260.467 68.2484 259.55 68.2484Z" fill="white"/>
<path d="M268.938 61.6204V68.0346H266.358V53.4388H268.881V58.9479H269.009C269.266 58.3302 269.662 57.8432 270.199 57.4869C270.741 57.1258 271.43 56.9452 272.266 56.9452C273.026 56.9452 273.689 57.1044 274.255 57.4227C274.82 57.741 275.257 58.2067 275.566 58.8196C275.879 59.4325 276.036 60.1808 276.036 61.0645V68.0346H273.456V61.4636C273.456 60.7272 273.266 60.1547 272.886 59.7461C272.511 59.3327 271.983 59.126 271.304 59.126C270.848 59.126 270.439 59.2258 270.078 59.4254C269.722 59.6202 269.442 59.9028 269.237 60.2734C269.038 60.644 268.938 61.093 268.938 61.6204Z" fill="white"/>
<path d="M101.993 11.6818C101.808 9.95556 101.031 8.61146 99.6601 7.64951C98.3028 6.68756 96.5371 6.20658 94.3628 6.20658C92.8342 6.20658 91.523 6.43718 90.4293 6.8984C89.3356 7.3596 88.4988 7.98553 87.919 8.77618C87.3392 9.56683 87.0427 10.4695 87.0295 11.4841C87.0295 12.3275 87.2206 13.0589 87.6027 13.6782C87.9981 14.2975 88.5318 14.8246 89.2038 15.2595C89.8759 15.6812 90.6204 16.037 91.4374 16.3269C92.2544 16.6168 93.078 16.8605 93.9081 17.0582L97.7033 18.007C99.2318 18.3628 100.701 18.8438 102.111 19.4499C103.534 20.0561 104.806 20.8204 105.926 21.7428C107.059 22.6652 107.955 23.7787 108.614 25.0833C109.273 26.3878 109.602 27.9164 109.602 29.669C109.602 32.041 108.996 34.1296 107.784 35.9349C106.572 37.727 104.819 39.1304 102.526 40.1451C100.247 41.1466 97.4858 41.6473 94.2442 41.6473C91.0948 41.6473 88.3604 41.1598 86.0412 40.1846C83.7352 39.2095 81.9298 37.7863 80.6253 35.9151C79.3339 34.0439 78.6355 31.7642 78.5301 29.076H85.7447C85.8501 30.486 86.285 31.6588 87.0493 32.5944C87.8136 33.53 88.8085 34.2284 90.034 34.6896C91.2727 35.1508 92.6563 35.3815 94.1849 35.3815C95.7794 35.3815 97.1762 35.1443 98.3753 34.6699C99.5876 34.1823 100.536 33.5103 101.222 32.6537C101.907 31.784 102.256 30.7693 102.269 29.6097C102.256 28.5555 101.946 27.6858 101.34 27.0006C100.734 26.3022 99.8841 25.7224 98.7904 25.2612C97.7098 24.7868 96.4448 24.3651 94.9953 23.9961L90.3898 22.8102C87.0559 21.9536 84.4204 20.6557 82.4833 18.9162C80.5594 17.1636 79.5974 14.8378 79.5974 11.9388C79.5974 9.55365 80.2431 7.46502 81.5345 5.67289C82.8391 3.88076 84.6115 2.49054 86.8516 1.50223C89.0918 0.500743 91.6285 0 94.4616 0C97.3343 0 99.8512 0.500743 102.012 1.50223C104.187 2.49054 105.893 3.86758 107.132 5.63336C108.37 7.38596 109.01 9.40211 109.049 11.6818H101.993Z" fill="white"/>
<path d="M135.175 28.2656V10.6737H142.33V41.0346H135.392V35.6384H135.076C134.391 37.3383 133.264 38.7285 131.696 39.8091C130.141 40.8896 128.224 41.4299 125.944 41.4299C123.954 41.4299 122.195 40.9885 120.667 40.1056C119.151 39.2095 117.965 37.9115 117.109 36.2116C116.252 34.4986 115.824 32.4297 115.824 30.0051V10.6737H122.979V28.8981C122.979 30.8221 123.506 32.3506 124.561 33.4839C125.615 34.6172 126.998 35.1838 128.711 35.1838C129.766 35.1838 130.787 34.9268 131.775 34.4129C132.764 33.899 133.574 33.1347 134.206 32.12C134.852 31.0922 135.175 29.8074 135.175 28.2656Z" fill="white"/>
<path d="M162.932 41.6276C159.901 41.6276 157.298 40.9621 155.124 39.6312C152.963 38.3003 151.296 36.462 150.123 34.1164C148.964 31.7576 148.384 29.0431 148.384 25.9728C148.384 22.8892 148.977 20.1681 150.163 17.8093C151.349 15.4374 153.022 13.5925 155.183 12.2748C157.358 10.9439 159.927 10.2784 162.892 10.2784C165.356 10.2784 167.537 10.733 169.435 11.6423C171.345 12.5383 172.867 13.81 174.001 15.4571C175.134 17.0912 175.78 19.0019 175.938 21.1893H169.099C168.822 19.7266 168.163 18.5077 167.122 17.5326C166.094 16.5443 164.717 16.0501 162.991 16.0501C161.528 16.0501 160.243 16.4455 159.137 17.2361C158.03 18.0136 157.166 19.1337 156.547 20.5964C155.941 22.059 155.638 23.8116 155.638 25.8542C155.638 27.923 155.941 29.702 156.547 31.191C157.153 32.6669 158.003 33.8067 159.097 34.6106C160.204 35.4012 161.502 35.7965 162.991 35.7965C164.045 35.7965 164.987 35.5989 165.817 35.2036C166.661 34.7951 167.366 34.2087 167.932 33.4444C168.499 32.6801 168.888 31.7511 169.099 30.6573H175.938C175.766 32.8053 175.134 34.7094 174.04 36.3698C172.946 38.0169 171.457 39.3083 169.573 40.2439C167.689 41.1663 165.475 41.6276 162.932 41.6276Z" fill="white"/>
<path d="M195.057 41.6276C192.092 41.6276 189.522 40.9753 187.348 39.6707C185.174 38.3661 183.487 36.5411 182.288 34.1955C181.102 31.8499 180.509 29.109 180.509 25.9728C180.509 22.8365 181.102 20.089 182.288 17.7303C183.487 15.3715 185.174 13.5398 187.348 12.2353C189.522 10.9307 192.092 10.2784 195.057 10.2784C198.022 10.2784 200.591 10.9307 202.765 12.2353C204.94 13.5398 206.62 15.3715 207.806 17.7303C209.005 20.089 209.605 22.8365 209.605 25.9728C209.605 29.109 209.005 31.8499 207.806 34.1955C206.62 36.5411 204.94 38.3661 202.765 39.6707C200.591 40.9753 198.022 41.6276 195.057 41.6276ZM195.096 35.8954C196.704 35.8954 198.048 35.4539 199.128 34.571C200.209 33.675 201.013 32.4758 201.54 30.9736C202.08 29.4714 202.35 27.7978 202.35 25.953C202.35 24.095 202.08 22.4148 201.54 20.9126C201.013 19.3972 200.209 18.1915 199.128 17.2954C198.048 16.3993 196.704 15.9513 195.096 15.9513C193.449 15.9513 192.079 16.3993 190.985 17.2954C189.904 18.1915 189.094 19.3972 188.554 20.9126C188.026 22.4148 187.763 24.095 187.763 25.953C187.763 27.7978 188.026 29.4714 188.554 30.9736C189.094 32.4758 189.904 33.675 190.985 34.571C192.079 35.4539 193.449 35.8954 195.096 35.8954Z" fill="white"/>
<path d="M215.994 41.0346V0.553453H223.149V15.6943H223.446C223.815 14.9564 224.335 14.1723 225.007 13.3422C225.679 12.4988 226.589 11.7806 227.735 11.1877C228.881 10.5815 230.344 10.2784 232.123 10.2784C234.469 10.2784 236.584 10.878 238.468 12.0771C240.366 13.2631 241.868 15.0223 242.975 17.3547C244.095 19.6739 244.655 22.5203 244.655 25.8937C244.655 29.2276 244.108 32.0607 243.014 34.3931C241.921 36.7256 240.432 38.5045 238.547 39.73C236.663 40.9555 234.528 41.5683 232.143 41.5683C230.403 41.5683 228.961 41.2784 227.814 40.6986C226.668 40.1187 225.745 39.4203 225.047 38.6033C224.362 37.7732 223.828 36.9891 223.446 36.2512H223.031V41.0346H215.994ZM223.011 25.8542C223.011 27.8176 223.288 29.5373 223.841 31.0131C224.408 32.489 225.218 33.642 226.272 34.4722C227.34 35.2892 228.631 35.6977 230.146 35.6977C231.728 35.6977 233.052 35.276 234.12 34.4327C235.187 33.5761 235.991 32.4099 236.531 30.9341C237.084 29.445 237.361 27.7517 237.361 25.8542C237.361 23.9698 237.091 22.2962 236.551 20.8335C236.01 19.3708 235.207 18.2244 234.139 17.3942C233.072 16.5641 231.741 16.149 230.146 16.149C228.618 16.149 227.32 16.5509 226.253 17.3547C225.185 18.1585 224.375 19.2852 223.821 20.7347C223.281 22.1842 223.011 23.8907 223.011 25.8542Z" fill="white"/>
<path d="M270.089 28.2656V10.6737H277.244V41.0346H270.306V35.6384H269.99C269.305 37.3383 268.178 38.7285 266.61 39.8091C265.055 40.8896 263.138 41.4299 260.858 41.4299C258.868 41.4299 257.109 40.9885 255.581 40.1056C254.065 39.2095 252.879 37.9115 252.023 36.2116C251.166 34.4986 250.738 32.4297 250.738 30.0051V10.6737H257.893V28.8981C257.893 30.8221 258.42 32.3506 259.475 33.4839C260.529 34.6172 261.912 35.1838 263.625 35.1838C264.68 35.1838 265.701 34.9268 266.689 34.4129C267.678 33.899 268.488 33.1347 269.12 32.12C269.766 31.0922 270.089 29.8074 270.089 28.2656Z" fill="white"/>
<path fill-rule="evenodd" clip-rule="evenodd" d="M25.3057 19.7351C34.6314 7.75096 49.2029 0.034575 65.5714 0.034575C66.2155 0.034575 66.8332 0.290442 67.2887 0.745887C67.7441 1.20133 68 1.81905 68 2.46315C68 18.835 60.2836 33.4031 48.2994 42.7321C48.7978 45.8544 48.6129 49.0477 47.7574 52.0915C46.9018 55.1354 45.3961 57.9575 43.344 60.3629C41.292 62.7684 38.7424 64.7 35.8714 66.0245C33.0003 67.349 29.8761 68.0348 26.7143 68.0346C26.0702 68.0346 25.4525 67.7787 24.997 67.3233C24.5416 66.8678 24.2857 66.2501 24.2857 65.606V52.2294C21.138 49.7438 18.2928 46.8975 15.8084 43.7489H2.42857C1.78447 43.7489 1.16676 43.493 0.711312 43.0375C0.255867 42.5821 7.15563e-08 41.9644 7.15563e-08 41.3203C-0.000255784 38.1581 0.685618 35.0336 2.01029 32.1623C3.33495 29.291 5.26687 26.7413 7.6727 24.6891C10.0785 22.637 12.901 21.1314 15.9453 20.2761C18.9896 19.4208 22.1832 19.2362 25.3057 19.7351ZM43.7143 17.0346C41.782 17.0346 39.9288 17.8022 38.5625 19.1685C37.1962 20.5348 36.4286 22.388 36.4286 24.3203C36.4286 26.2526 37.1962 28.1057 38.5625 29.4721C39.9288 30.8384 41.782 31.606 43.7143 31.606C45.6466 31.606 47.4997 30.8384 48.8661 29.4721C50.2324 28.1057 51 26.2526 51 24.3203C51 22.388 50.2324 20.5348 48.8661 19.1685C47.4997 17.8022 45.6466 17.0346 43.7143 17.0346Z" fill="white"/>
<path d="M12.1754 51.0117C12.4312 50.821 12.6469 50.5818 12.8102 50.3077C12.9735 50.0336 13.0813 49.73 13.1273 49.4143C13.1733 49.0986 13.1566 48.7769 13.0783 48.4676C13 48.1583 12.8615 47.8675 12.6708 47.6117C12.4801 47.3559 12.2409 47.1402 11.9668 46.9769C11.6927 46.8136 11.3891 46.7058 11.0734 46.6598C10.7577 46.6138 10.436 46.6305 10.1267 46.7088C9.81743 46.7871 9.5266 46.9256 9.27082 47.1163C6.78684 48.964 4.85538 51.4558 3.68537 54.322C2.51537 57.1882 2.15136 60.3198 2.63272 63.378C2.71101 63.8874 2.94929 64.3586 3.31311 64.7236C3.67693 65.0886 4.14742 65.3284 4.65653 65.4083C7.71502 65.8893 10.8468 65.5248 13.7131 64.3542C16.5793 63.1836 19.0709 61.2515 20.9182 58.7669C21.1151 58.5118 21.2592 58.2201 21.3422 57.9088C21.4252 57.5974 21.4454 57.2727 21.4017 56.9534C21.3579 56.6342 21.2511 56.3268 21.0874 56.0493C20.9236 55.7718 20.7063 55.5296 20.4481 55.3369C20.1898 55.1442 19.8958 55.0048 19.5832 54.9268C19.2705 54.8488 18.9455 54.8339 18.627 54.8828C18.3085 54.9317 18.0029 55.0435 17.7281 55.2117C17.4532 55.3799 17.2146 55.6011 17.0261 55.8624C15.8968 57.3811 14.4277 58.6143 12.7364 59.4633C11.045 60.3124 9.17837 60.7537 7.28587 60.7519C7.28587 56.769 9.20282 53.2298 12.1754 51.0117Z" fill="white"/>
</svg>
